<svg  height="64" width="64" xmlns="http://www.w3.org/2000/svg" xmlns:xlink="http://www.w3.org/1999/xlink"><filter id="a" height="200%" width="200%"><feGaussianBlur in="SourceAlpha" stdDeviation="3"/><feOffset dx="0" dy="4" result="offsetblur"/><feComponentTransfer><feFuncA slope="0.05" type="linear"/></feComponentTransfer><feMerge><feMergeNode/><feMergeNode in="SourceGraphic"/></feMerge></filter><g filter="url(#a)"><g stroke="#ffa500" stroke-width="2" transform="translate(20 26)"><g fill="none" stroke-linecap="round"><path d="m0 0v3" transform="translate(0 9)"/><path d="m0 0v3" transform="matrix(.70710678 .70710678 -.70710678 .70710678 -6.36396102 6.36396102)"/><path d="m0 0v3" transform="matrix(0 1 -1 0 -9 0)"/><path d="m0 0v3" transform="matrix(-.70710678 .70710678 -.70710678 -.70710678 -6.36396102 -6.36396102)"/><path d="m0 0v3" transform="matrix(-1 0 0 -1 0 -9)"/><path d="m0 0v3" transform="matrix(-.70710678 -.70710678 .70710678 -.70710678 6.36396102 -6.36396102)"/><path d="m0 0v3" transform="matrix(0 -1 1 0 9 0)"/><path d="m0 0v3" transform="matrix(.70710678 -.70710678 .70710678 .70710678 6.36396102 6.36396102)"/></g><circle fill="#ffa500" r="5"/></g><path d="m47.7 35.4c0-4.6-3.7-8.2-8.2-8.2-1 0-1.9.2-2.8.5-.3-3.4-3.1-6.2-6.6-6.2-3.7 0-6.7 3-6.7 6.7 0 .8.2 1.6.4 2.3-.3-.1-.7-.1-1-.1-3.7 0-6.7 3-6.7 6.7 0 3.6 2.9 6.6 6.5 6.7h17.2c4.4-.5 7.9-4 7.9-8.4z" fill="#57a0ee" stroke="#fff" stroke-linejoin="round" stroke-width="1.2" transform="translate(0 -1)"/></g></svg>